<svg width="90" height="34" viewBox="0 0 90 34" fill="none" xmlns="http://www.w3.org/2000/svg">
<g clip-path="url(#clip0_2916_373)">
<path d="M74.299 13.8896V10.3263H86.7787V13.8896H90.3441V6.75784H70.7336V13.8896H74.299Z" fill="#16DBC3"/>
<path d="M78.7568 23.1043V17.1013C78.7568 16.3119 78.1171 15.6733 77.3288 15.6733H70.7342V19.2448H75.1863V27.2622H80.6533L84.479 19.2448H90.3447V15.6733H83.9756C83.0202 15.6733 81.9664 16.0444 81.2201 17.7143C80.4739 19.3842 78.7568 23.1054 78.7568 23.1054V23.1043Z" fill="#16DBC3"/>
<path d="M6.35981 19.624C6.59661 19.624 6.81701 19.7471 6.94207 19.948L11.47 27.2601H18.5125L11.6391 16.8624L18.3331 6.75784H11.4095L7.02921 13.9254C6.89697 14.1428 6.66017 14.275 6.40594 14.275C6.00204 14.275 5.67503 13.948 5.67503 13.5441V6.75784H0V27.2601H5.67503V20.3078C5.67503 19.9295 5.98154 19.623 6.35981 19.623V19.624Z" fill="black"/>
<path d="M25.5236 27.2602H31.1986V21.9121H26.3437C25.8906 21.9121 25.5236 21.5451 25.5236 21.092V6.75787H19.8486V27.2602H25.5236Z" fill="black"/>
<path d="M39.2364 24.437H46.5445L47.4517 27.2602H53.6618L46.2933 6.75787H39.6075L32.239 27.2602H38.3302L39.2375 24.437H39.2364ZM43.4763 14.887L44.8643 19.2079H40.9166L42.3046 14.887C42.4871 14.3181 43.2928 14.3181 43.4753 14.887H43.4763Z" fill="black"/>
<path d="M51.6863 6.75787V12.1059H55.5018C55.9549 12.1059 56.3219 12.4729 56.3219 12.926V27.2602H61.9969V12.926C61.9969 12.4729 62.3639 12.1059 62.817 12.1059H66.6325V6.75787H51.6863Z" fill="black"/>
</g>
<defs>
<clipPath id="clip0_2916_373">
<rect width="90" height="34" fill="white"/>
</clipPath>
</defs>
</svg>
